<svg width="72" height="72" viewBox="0 0 72 72" fill="none" xmlns="http://www.w3.org/2000/svg">
<rect width="72" height="72" fill="white"/>
<path d="M10.3509 2H62.8421L70 15.6H2L10.3509 2Z" fill="#FFAD1B"/>
<path d="M2.60177 15.6H70V54.8385L68.807 61.16L66.4211 65.92L59.8597 70H12.1404L7.41593 67.2296L2 56.9037L2.60177 15.6Z" fill="#FFCC00"/>
<path d="M62.1033 2.5L69.1328 14.6429H2.86719L9.89668 2.5H62.1033ZM2.5 15.6429H69.5V58.4904L68.5745 61.2707L67.6625 64.0108L65.4207 66.1658L59.4091 69.5H12.1412L8.99741 67.3413L6.18853 63.9659C6.1887 63.9661 6.18857 63.9659 6.18813 63.9653C6.1853 63.9614 6.16952 63.9396 6.13844 63.8884C6.10589 63.8347 6.06509 63.7631 6.01618 63.6732C5.91853 63.4938 5.79566 63.2549 5.65292 62.9682C5.36778 62.3956 5.01014 61.6462 4.62834 60.8308C3.88489 59.2431 3.05464 57.4153 2.5 56.1788V15.6429Z" stroke="#FFB800"/>
<rect x="31" y="16" width="6" height="14" fill="white"/>
<path d="M31.8571 2H34.8571L37 16H31L31.8571 2Z" fill="#DEDBDB"/>
<path d="M13 31H14.4549L17.8758 44.6052H17.9938L21.4147 31H22.8695V47.3902H21.7292V34.9375H21.6309L18.4853 47.3902H17.3843L14.2386 34.9375H14.1403V47.3902H13V31Z" fill="black"/>
<path d="M27.3779 47.6784C26.8995 47.6784 26.4654 47.5316 26.0754 47.2382C25.6855 46.9394 25.3758 46.5099 25.1465 45.9497C24.9171 45.3841 24.8024 44.7012 24.8024 43.9009C24.8024 43.1966 24.8876 42.6258 25.058 42.1883C25.2284 41.7454 25.4561 41.3986 25.7412 41.1479C26.0263 40.8971 26.3408 40.7104 26.6849 40.5877C27.0322 40.4596 27.3812 40.3582 27.7318 40.2835C28.1906 40.1875 28.5625 40.1155 28.8476 40.0675C29.1359 40.0141 29.3456 39.9261 29.4767 39.8034C29.611 39.6806 29.6782 39.4672 29.6782 39.1631V39.0991C29.6782 38.3095 29.5455 37.6959 29.2801 37.2584C29.0179 36.8209 28.6198 36.6021 28.0857 36.6021C27.5319 36.6021 27.0978 36.7995 26.7832 37.1944C26.4686 37.5892 26.2475 38.0107 26.1197 38.4588L25.0187 37.8186C25.2153 37.0716 25.4774 36.4901 25.8051 36.0739C26.1361 35.6524 26.4965 35.359 26.8864 35.1936C27.2796 35.0229 27.6663 34.9375 28.0464 34.9375C28.2889 34.9375 28.5674 34.9855 28.882 35.0816C29.1998 35.1723 29.5062 35.3617 29.8011 35.6498C30.0993 35.9379 30.3467 36.3727 30.5433 36.9543C30.7399 37.5358 30.8382 38.3148 30.8382 39.2912V47.3902H29.6782V45.7256H29.6192C29.5406 45.9924 29.4095 46.2778 29.226 46.5819C29.0425 46.8861 28.7984 47.1448 28.4937 47.3582C28.1889 47.5716 27.817 47.6784 27.3779 47.6784ZM27.5549 45.9817C28.0136 45.9817 28.4003 45.835 28.7148 45.5415C29.0327 45.2481 29.2719 44.8693 29.4325 44.4051C29.5963 43.9409 29.6782 43.4527 29.6782 42.9405V41.2119C29.6291 41.3079 29.5209 41.396 29.3538 41.476C29.19 41.5507 28.9999 41.6174 28.7837 41.6761C28.5707 41.7294 28.3626 41.7774 28.1594 41.8201C27.9596 41.8575 27.7974 41.8895 27.6728 41.9162C27.3714 41.9802 27.0896 42.0842 26.8274 42.2283C26.5686 42.367 26.3589 42.5777 26.1983 42.8605C26.041 43.138 25.9624 43.5168 25.9624 43.997C25.9624 44.6532 26.1115 45.1494 26.4097 45.4855C26.7111 45.8163 27.0929 45.9817 27.5549 45.9817Z" fill="black"/>
<path d="M32.9554 52V35.0976H34.076V37.0503H34.2136C34.2988 36.8369 34.4168 36.5648 34.5675 36.234C34.7215 35.8979 34.9411 35.5991 35.2261 35.3377C35.5145 35.0709 35.9044 34.9375 36.3959 34.9375C37.0316 34.9375 37.592 35.1963 38.0769 35.7138C38.5619 36.2313 38.9403 36.9649 39.2123 37.9146C39.4843 38.8643 39.6203 39.9848 39.6203 41.2759C39.6203 42.5777 39.4843 43.7062 39.2123 44.6612C38.9403 45.6109 38.5635 46.3472 38.0818 46.87C37.6001 47.3876 37.0447 47.6463 36.4156 47.6463C35.9306 47.6463 35.5424 47.5156 35.2507 47.2542C34.9591 46.9874 34.7346 46.686 34.5774 46.3498C34.4201 46.0084 34.2988 45.7256 34.2136 45.5015H34.1153V52H32.9554ZM34.0957 41.2439C34.0957 42.1723 34.1792 42.9912 34.3463 43.7008C34.5135 44.4051 34.7576 44.9573 35.0787 45.3575C35.3998 45.7523 35.793 45.9497 36.2583 45.9497C36.7433 45.9497 37.148 45.7416 37.4724 45.3255C37.8 44.904 38.0458 44.3384 38.2096 43.6288C38.3767 42.9139 38.4603 42.1189 38.4603 41.2439C38.4603 40.3796 38.3784 39.6006 38.2145 38.907C38.054 38.2081 37.8099 37.6559 37.4822 37.2504C37.1578 36.8396 36.7498 36.6341 36.2583 36.6341C35.7865 36.6341 35.39 36.8289 35.0689 37.2184C34.7477 37.6025 34.5053 38.1414 34.3414 38.835C34.1776 39.5232 34.0957 40.3262 34.0957 41.2439Z" fill="black"/>
<path d="M41.3897 47.3902V35.0976H42.5497V40.4436H43.3164L46.0296 35.0976H47.5238L44.4764 41.0198L47.5631 47.3902H46.0689L43.5917 42.2043H42.5497V47.3902H41.3897Z" fill="black"/>
<path d="M51.6783 47.6463C50.9508 47.6463 50.3233 47.3849 49.7958 46.862C49.2715 46.3338 48.8668 45.5976 48.5817 44.6532C48.2999 43.7035 48.159 42.5991 48.159 41.3399C48.159 40.0808 48.2999 38.971 48.5817 38.0107C48.8668 37.045 49.2633 36.2927 49.7712 35.7538C50.2824 35.2096 50.8787 34.9375 51.5603 34.9375C51.9535 34.9375 52.3418 35.0442 52.7252 35.2576C53.1086 35.471 53.4575 35.8178 53.7721 36.298C54.0867 36.7729 54.3373 37.4024 54.5241 38.1867C54.7109 38.971 54.8043 39.9367 54.8043 41.0838V41.8841H48.9848V40.2515H53.6246C53.6246 39.5579 53.5395 38.939 53.3691 38.3948C53.2019 37.8506 52.9627 37.4211 52.6515 37.1063C52.3434 36.7915 51.9797 36.6341 51.5603 36.6341C51.0983 36.6341 50.6985 36.8209 50.361 37.1944C50.0268 37.5625 49.7696 38.0427 49.5893 38.6349C49.4091 39.2271 49.319 39.862 49.319 40.5396V41.628C49.319 42.5564 49.4173 43.3434 49.6139 43.9889C49.8138 44.6292 50.0907 45.1174 50.4446 45.4535C50.7985 45.7843 51.2097 45.9497 51.6783 45.9497C51.983 45.9497 52.2582 45.8803 52.504 45.7416C52.753 45.5976 52.9677 45.3841 53.1479 45.1014C53.3281 44.8133 53.4674 44.4558 53.5657 44.029L54.6863 44.5412C54.5683 45.1601 54.3701 45.7043 54.0916 46.1738C53.8131 46.638 53.469 47.0008 53.0594 47.2622C52.6498 47.5183 52.1894 47.6463 51.6783 47.6463Z" fill="black"/>
<path d="M55.8659 36.8582V35.0976H62V36.8582H59.5228V47.3902H58.3628V36.8582H55.8659Z" fill="black"/>
<circle cx="57" cy="26" r="5" fill="#FF0000"/>
<path d="M58.4531 29V23.8438H56.8594C56.5 23.8438 56.2174 23.9271 56.0117 24.0937C55.806 24.2604 55.7031 24.4896 55.7031 24.7812C55.7031 25.0677 55.7956 25.293 55.9805 25.457C56.168 25.6211 56.4245 25.7031 56.75 25.7031H58.6875V26.5625H56.75C56.3438 26.5625 55.9935 26.4909 55.6992 26.3477C55.4049 26.2044 55.1784 26 55.0195 25.7344C54.8607 25.4661 54.7812 25.1484 54.7812 24.7812C54.7812 24.4115 54.8646 24.0937 55.0312 23.8281C55.1979 23.5625 55.4362 23.3581 55.7461 23.2148C56.0586 23.0716 56.4297 23 56.8594 23H59.3281V29H58.4531ZM54.4531 29L56.1563 26.0156H57.1562L55.4531 29H54.4531Z" fill="white"/>
</svg>
